<?xml version="1.0" standalone="no"?>
<!DOCTYPE svg PUBLIC "-//W3C//DTD SVG 20010904//EN"
 "http://www.w3.org/TR/2001/REC-SVG-20010904/DTD/svg10.dtd">
<svg version="1.0" xmlns="http://www.w3.org/2000/svg"
 width="512.000000pt" height="512.000000pt" viewBox="0 0 512.000000 512.000000"
 preserveAspectRatio="xMidYMid meet">
<metadata>
Created by potrace 1.11, written by Peter Selinger 2001-2013
</metadata>
<g transform="translate(0.000000,512.000000) scale(0.100000,-0.100000)"
fill="#000000" stroke="none">
<path d="M2378 5115 c-2 -2 -32 -6 -68 -9 -62 -6 -157 -20 -210 -31 -14 -3
-36 -7 -50 -10 -57 -11 -72 -15 -147 -35 -308 -85 -585 -221 -853 -419 -229
-168 -460 -412 -610 -644 -33 -51 -63 -96 -68 -102 -4 -5 -25 -44 -46 -85 -22
-41 -43 -82 -48 -90 -4 -8 -21 -44 -37 -80 -21 -46 -49 -84 -94 -128 -72 -70
-121 -155 -137 -240 -13 -69 -12 -1299 0 -1367 15 -76 66 -167 130 -232 43
-44 69 -84 109 -167 73 -152 195 -354 275 -453 220 -274 385 -428 641 -598
101 -68 318 -184 425 -229 187 -77 456 -151 625 -171 28 -3 66 -8 85 -11 62
-9 433 -12 495 -4 33 5 82 11 109 15 188 24 464 99 624 171 201 90 360 179
512 287 47 34 87 64 90 67 3 3 34 30 70 59 95 77 263 251 354 365 111 139 204
287 292 461 63 123 87 160 135 207 64 63 110 145 128 226 7 36 11 259 11 699
0 577 -2 653 -17 707 -24 84 -56 138 -124 206 -33 32 -59 61 -59 66 0 11 -107
220 -148 289 -273 459 -646 804 -1117 1031 -359 173 -666 245 -1062 249 -117
2 -213 1 -215 0z"/>
</g>
</svg>
